<svg width="58" height="73" viewBox="0 0 58 73" fill="none" xmlns="http://www.w3.org/2000/svg">
<g clip-path="url(#clip0_2_1191)">
<path d="M29 0C18.913 0 0 7.68421 0 29.4561C0 51.2281 29 73 29 73C29 73 58 51.2281 58 29.4561C58 7.68421 39.087 0 29 0Z" fill="#FEDB3F"/>
<path d="M17.3746 28.7636C16.6053 28.7636 15.9276 28.6283 15.3415 28.3578C14.7554 28.0873 14.3037 27.7124 13.9862 27.2329C13.6687 26.7411 13.51 26.1755 13.51 25.5362C13.51 24.9952 13.6199 24.5034 13.8397 24.0608C14.0717 23.6182 14.3769 23.2678 14.7554 23.0096C15.1462 22.7514 15.5735 22.6223 16.0375 22.6223C16.4649 22.6223 16.8251 22.733 17.1182 22.9543C17.4112 23.1633 17.5944 23.4584 17.6676 23.8395C17.0327 23.8395 16.526 24.0116 16.1474 24.3559C15.7689 24.6879 15.5796 25.1428 15.5796 25.7206C15.5796 26.2493 15.7384 26.6735 16.0558 26.9931C16.3733 27.3128 16.7946 27.4726 17.3196 27.4726C17.9668 27.4726 18.498 27.2575 18.9131 26.8271C19.3405 26.3845 19.5542 25.8313 19.5542 25.1673C19.5542 24.5895 19.3954 24.0424 19.078 23.526C18.7605 23.0096 18.2843 22.3826 17.6493 21.6449C16.99 20.8826 16.4893 20.231 16.1474 19.69C15.8177 19.1368 15.6529 18.5343 15.6529 17.8827C15.6529 17.2434 15.83 16.6717 16.1841 16.1676C16.5382 15.6512 17.0266 15.2455 17.6493 14.9504C18.2721 14.6554 18.9742 14.5078 19.7556 14.5078C20.7447 14.5078 21.5323 14.7414 22.1184 15.2086C22.7167 15.6758 23.0158 16.3028 23.0158 17.0897C23.0158 17.6061 22.8876 18.0241 22.6312 18.3438C22.3748 18.6634 22.039 18.8233 21.6238 18.8233C21.1598 18.8233 20.7874 18.6327 20.5066 18.2516C20.7386 18.0794 20.9217 17.852 21.0561 17.5692C21.1904 17.2864 21.2575 16.9914 21.2575 16.684C21.2575 16.2906 21.1415 15.977 20.9095 15.7434C20.6775 15.5098 20.3601 15.393 19.9571 15.393C19.4687 15.393 19.0657 15.5713 18.7483 15.9279C18.443 16.2721 18.2904 16.7147 18.2904 17.2557C18.2904 17.7475 18.4308 18.2085 18.7116 18.6388C18.9925 19.0569 19.4321 19.5978 20.0304 20.2618C20.5188 20.7904 20.9095 21.2453 21.2026 21.6265C21.5078 22.0076 21.7643 22.4502 21.9718 22.9543C22.1916 23.4461 22.3015 23.9809 22.3015 24.5588C22.3015 25.3456 22.0817 26.0587 21.6422 26.698C21.2148 27.3374 20.6226 27.8415 19.8655 28.2103C19.1207 28.5791 18.2904 28.7636 17.3746 28.7636ZM25.1462 28.5423C24.5601 28.5423 24.0839 28.3578 23.7176 27.989C23.3635 27.6201 23.1864 27.0669 23.1864 26.3292C23.1864 26.0218 23.2353 25.6223 23.3329 25.1305L24.5784 19.2105H27.2159L25.8971 25.4809C25.8605 25.6653 25.8422 25.8374 25.8422 25.9972C25.8422 26.5013 26.0254 26.7534 26.3917 26.7534C26.7336 26.7534 27.0266 26.612 27.2708 26.3292C27.515 26.0341 27.7104 25.6346 27.8569 25.1305L29.1024 19.2105H31.7399L30.4211 25.4809C30.3723 25.6653 30.3479 25.862 30.3479 26.071C30.3479 26.3169 30.4028 26.4952 30.5127 26.6058C30.6348 26.7042 30.8302 26.7534 31.0988 26.7534C31.4407 26.7534 31.7338 26.6058 31.978 26.3108C32.2344 26.0157 32.4359 25.6223 32.5824 25.1305H33.3517C32.8999 26.4583 32.3382 27.362 31.6666 27.8415C31.0073 28.3087 30.3418 28.5423 29.6702 28.5423C29.1451 28.5423 28.7239 28.3947 28.4064 28.0996C28.1011 27.8046 27.918 27.3681 27.8569 26.7903C27.4418 27.4665 27.0022 27.9275 26.5382 28.1734C26.0864 28.4193 25.6224 28.5423 25.1462 28.5423ZM33.8257 19.2105H36.4632L36.2251 20.354C36.6403 19.9851 37.0127 19.7023 37.3424 19.5056C37.6843 19.3089 38.0506 19.2105 38.4413 19.2105C38.8321 19.2105 39.1373 19.3458 39.3571 19.6163C39.5891 19.8868 39.7051 20.2126 39.7051 20.5937C39.7051 20.9503 39.5891 21.2638 39.3571 21.5343C39.1251 21.8047 38.8015 21.94 38.3864 21.94C38.1177 21.94 37.9346 21.8785 37.8369 21.7556C37.7514 21.6203 37.6843 21.4297 37.6354 21.1839C37.5988 21.024 37.5622 20.9072 37.5255 20.8335C37.4889 20.7597 37.4217 20.7228 37.3241 20.7228C37.0676 20.7228 36.8479 20.7781 36.6647 20.8888C36.4937 20.9871 36.2679 21.1654 35.987 21.4236L34.5217 28.4316H31.8843L33.8257 19.2105ZM37.8181 33.0421C37.2442 33.0421 36.7436 32.8516 36.3162 32.4704C35.8767 32.1016 35.6569 31.6282 35.6569 31.0504C35.6569 30.5217 35.7912 30.0852 36.0598 29.741C36.3284 29.3967 36.6764 29.1201 37.1038 28.9111C37.5312 28.7144 38.099 28.5054 38.8072 28.2841L41.0234 17.7536C41.2676 16.5733 41.695 15.7557 42.3055 15.3008C42.9282 14.8459 43.612 14.6185 44.3569 14.6185C44.9308 14.6185 45.4314 14.809 45.8588 15.1902C46.2983 15.559 46.5181 16.0324 46.5181 16.6102C46.5181 16.893 46.4998 17.145 46.4632 17.3663H45.6023C45.6268 17.0959 45.639 16.9299 45.639 16.8684C45.639 16.6717 45.5718 16.518 45.4375 16.4074C45.3032 16.2967 45.1383 16.2414 44.943 16.2414C44.6866 16.2414 44.4362 16.3582 44.192 16.5918C43.9478 16.8131 43.7708 17.2004 43.6609 17.7536L43.3495 19.2105H44.6866L44.5583 19.9482H43.203L41.0967 29.907C40.8524 31.0996 40.4312 31.9172 39.8329 32.3598C39.2346 32.8147 38.563 33.0421 37.8181 33.0421ZM37.3969 31.4008C37.8853 31.4008 38.2333 30.9213 38.4409 29.9623L38.679 28.8927C38.0318 29.114 37.5373 29.366 37.1954 29.6488C36.8413 29.9439 36.6642 30.325 36.6642 30.7922C36.6642 30.9397 36.7375 31.075 36.884 31.1979C37.0306 31.3332 37.2015 31.4008 37.3969 31.4008ZM10.3418 44.6791C9.51152 44.6791 8.87658 44.4762 8.437 44.0705C7.99742 43.6525 7.77763 43.0685 7.77763 42.3185C7.77763 41.9497 7.82036 41.5993 7.90584 41.2673L9.86563 32.0278L12.5764 31.659L11.6972 35.8084C12.0391 35.5994 12.3199 35.4642 12.5397 35.4027C12.7595 35.329 12.9793 35.2921 13.1991 35.2921C14.6399 35.2921 15.3604 36.3433 15.3604 38.4457C15.3604 39.294 15.1955 40.2038 14.8658 41.1751C14.5484 42.1341 14.0111 42.9578 13.2541 43.6463C12.5092 44.3348 11.5385 44.6791 10.3418 44.6791ZM11.3675 42.8902C11.7461 42.8902 12.1002 42.6566 12.4298 42.1894C12.7595 41.7099 13.0221 41.1198 13.2174 40.419C13.4128 39.7059 13.5105 39.0235 13.5105 38.3719C13.5105 37.8801 13.425 37.4621 13.2541 37.1178C13.0831 36.7736 12.845 36.6015 12.5397 36.6015C12.3566 36.6015 12.149 36.6322 11.917 36.6937C11.6972 36.7428 11.5446 36.8228 11.4591 36.9334L10.4517 41.6177C10.4151 41.7652 10.3968 41.9066 10.3968 42.0419C10.3968 42.6074 10.7204 42.8902 11.3675 42.8902ZM18.7183 44.6422C17.8147 44.6422 17.1004 44.4086 16.5753 43.9414C16.0503 43.4742 15.7878 42.7365 15.7878 41.7284C15.7878 40.8923 15.9587 39.9641 16.3006 38.9436C16.6425 37.9231 17.192 37.0441 17.949 36.3064C18.7061 35.5564 19.6585 35.1814 20.8063 35.1814C22.3692 35.1814 23.1507 36.165 23.1507 38.1322V38.1506C23.1873 38.1629 23.2545 38.169 23.3522 38.169C23.7551 38.169 24.2191 38.0645 24.7442 37.8555C25.2692 37.6342 25.7454 37.3699 26.1728 37.0625L26.3376 37.5604C25.9835 37.9416 25.5195 38.2674 24.9456 38.5379C24.384 38.7961 23.7673 38.9805 23.0957 39.0911C22.9981 40.21 22.7477 41.1874 22.3448 42.0234C21.9419 42.8595 21.4229 43.505 20.788 43.9599C20.153 44.4148 19.4631 44.6422 18.7183 44.6422ZM19.4509 42.9824C19.744 42.9824 20.037 42.8164 20.3301 42.4845C20.6231 42.1402 20.8795 41.6792 21.0993 41.1013C21.3191 40.5112 21.4779 39.8596 21.5755 39.1465C21.2459 39.0727 21.081 38.8145 21.081 38.3719C21.081 37.8678 21.2703 37.5359 21.6488 37.376C21.6244 36.9703 21.5633 36.6937 21.4656 36.5461C21.368 36.3863 21.197 36.3064 20.9528 36.3064C20.5499 36.3064 20.1591 36.6015 19.7806 37.1916C19.4021 37.7817 19.0968 38.4887 18.8648 39.3124C18.6328 40.1362 18.5168 40.8616 18.5168 41.4886C18.5168 42.0788 18.584 42.4783 18.7183 42.6873C18.8526 42.8841 19.0968 42.9824 19.4509 42.9824ZM26.291 44.6791C25.595 44.6791 25.015 44.4394 24.551 43.9599C24.087 43.4804 23.855 42.7304 23.855 41.7099C23.855 40.8001 24.0321 39.8473 24.3862 38.8514C24.7525 37.8432 25.2898 36.9949 25.998 36.3064C26.7184 35.6056 27.5731 35.2552 28.5622 35.2552C29.0628 35.2552 29.4352 35.3412 29.6794 35.5134C29.9236 35.6855 30.0458 35.913 30.0458 36.1957V36.3248L30.2472 35.3474H32.8847L31.566 41.6177C31.5171 41.8021 31.4927 41.9988 31.4927 42.2079C31.4927 42.7365 31.743 43.0009 32.2436 43.0009C32.5855 43.0009 32.8786 42.841 33.1228 42.5214C33.3792 42.2017 33.5807 41.7837 33.7272 41.2673H34.4965C34.0447 42.5951 33.483 43.4988 32.8114 43.9783C32.1521 44.4455 31.4866 44.6791 30.815 44.6791C30.3022 44.6791 29.887 44.5377 29.5695 44.2549C29.2643 43.9599 29.0811 43.5357 29.0201 42.9824C28.666 43.4865 28.2691 43.8984 27.8295 44.218C27.4022 44.5254 26.8893 44.6791 26.291 44.6791ZM27.4815 42.8902C27.7868 42.8902 28.086 42.7488 28.379 42.466C28.6843 42.171 28.8919 41.7714 29.0018 41.2673L29.8809 37.0994C29.8809 36.9396 29.8199 36.7859 29.6978 36.6383C29.5756 36.4785 29.3864 36.3986 29.13 36.3986C28.6415 36.3986 28.202 36.6875 27.8112 37.2654C27.4205 37.8309 27.1152 38.5194 26.8954 39.3309C26.6756 40.13 26.5658 40.837 26.5658 41.4517C26.5658 42.0665 26.6512 42.4599 26.8222 42.632C27.0053 42.8042 27.2251 42.8902 27.4815 42.8902ZM34.9794 35.3474H37.6169L37.3788 36.4908C37.7939 36.122 38.1664 35.8392 38.496 35.6425C38.8379 35.4458 39.2043 35.3474 39.595 35.3474C39.9857 35.3474 40.291 35.4826 40.5108 35.7531C40.7428 36.0236 40.8588 36.3494 40.8588 36.7305C40.8588 37.0871 40.7428 37.4006 40.5108 37.6711C40.2788 37.9416 39.9552 38.0768 39.54 38.0768C39.2714 38.0768 39.0883 38.0154 38.9906 37.8924C38.9051 37.7572 38.8379 37.5666 38.7891 37.3207C38.7525 37.1609 38.7158 37.0441 38.6792 36.9703C38.6426 36.8965 38.5754 36.8596 38.4777 36.8596C38.2213 36.8596 38.0015 36.915 37.8184 37.0256C37.6474 37.124 37.4215 37.3023 37.1407 37.5604L35.6754 44.5684H33.0379L34.9794 35.3474ZM42.8182 44.6791C42.1222 44.6791 41.5422 44.4394 41.0782 43.9599C40.6142 43.4804 40.3822 42.7304 40.3822 41.7099C40.3822 40.8001 40.5592 39.8473 40.9133 38.8514C41.2797 37.8432 41.8169 36.9949 42.5251 36.3064C43.2456 35.6056 44.1003 35.2552 45.0893 35.2552C45.59 35.2552 45.9624 35.3412 46.2066 35.5134C46.4508 35.6855 46.5729 35.913 46.5729 36.1957V36.2695L47.4704 32.0278L50.1811 31.659L48.0748 41.6177C48.026 41.8021 48.0016 41.9804 48.0016 42.1525C48.0016 42.6443 48.2519 42.8902 48.7525 42.8902C48.9723 42.8902 49.1677 42.8533 49.3386 42.7796C49.2898 43.3943 49.07 43.8676 48.6792 44.1996C48.3007 44.5193 47.8489 44.6791 47.3239 44.6791C46.8355 44.6791 46.4203 44.5562 46.0784 44.3103C45.7487 44.0521 45.5289 43.6648 45.419 43.1484C44.6864 44.1689 43.8195 44.6791 42.8182 44.6791ZM44.0087 42.8902C44.2773 42.8902 44.546 42.7734 44.8146 42.5398C45.0955 42.3062 45.303 41.9804 45.4373 41.5624L45.5106 41.2673L46.4081 37.0441C46.2982 36.6138 46.0479 36.3986 45.6571 36.3986C45.1687 36.3986 44.7291 36.6875 44.3384 37.2654C43.9477 37.8309 43.6424 38.5194 43.4226 39.3309C43.2028 40.13 43.0929 40.837 43.0929 41.4517C43.0929 42.0665 43.1784 42.4599 43.3493 42.632C43.5325 42.8042 43.7523 42.8902 44.0087 42.8902Z" fill="#292929"/>
</g>
<defs>
<clipPath id="clip0_2_1191">
<rect width="58" height="73" fill="white"/>
</clipPath>
</defs>
</svg>
