<svg xmlns="http://www.w3.org/2000/svg">
  <symbol viewBox="0 0 397 379" id="bg-catalog">
    <path d="M260.495 23.9363C239.952 -9.62469 178.646 -0.701744 150.56 7.95485C61.4442 40.764 -25.4685 141.288 6.92245 276.642C18.1567 323.588 62.2911 315.597 108.03 315.597C153.77 315.597 133.607 335.038 197 368C260.393 400.962 296.483 343.98 335 327C373.517 310.02 398.407 256.931 396 198C393.593 139.069 357.9 108.979 325 91C292.1 73.0209 286.173 65.8875 260.495 23.9363Z"></path>
  </symbol>
  <symbol viewBox="0 0 20 20" id="in">
    <path d="M17.6022 0H2.39782C1.08992 0 0 1.03542 0 2.34332V17.6567C0 18.9646 1.08992 20 2.39782 20H17.6022C18.9101 20 20 18.9646 20 17.6567V2.34332C20 1.03542 18.9101 0 17.6022 0ZM14.3869 3.10627C14.3869 2.77929 14.6594 2.50681 14.9864 2.50681H16.8937C17.2207 2.50681 17.4932 2.77929 17.4932 3.10627V4.95913C17.4932 5.2861 17.2207 5.55858 16.8937 5.55858H15.0409C14.7139 5.55858 14.4414 5.2861 14.4414 4.95913L14.3869 3.10627ZM10.0272 6.15804C12.1526 6.15804 13.8965 7.84741 13.8965 9.97275C13.8965 12.0981 12.1526 13.7875 10.0272 13.7875C7.90191 13.7875 6.15804 12.0981 6.15804 9.97275C6.15804 7.90191 7.90191 6.15804 10.0272 6.15804ZM18.0926 17.4932C18.0926 17.8202 17.8202 18.0926 17.4932 18.0926H2.50681C2.17984 18.0926 1.90736 17.8202 1.90736 17.4932V8.11989H4.35967C4.0327 8.61035 3.92371 9.48229 3.92371 10.0272C3.92371 13.3515 6.6485 16.0763 10.0272 16.0763C13.406 16.0763 16.1308 13.3515 16.1308 10.0272C16.1308 9.48229 16.0763 8.61035 15.6403 8.11989H18.1471L18.0926 17.4932Z"></path>
  </symbol>
  <symbol viewBox="0 0 20 20" id="fb">
    <path d="M20 18.9101C20 19.5095 19.5095 20 18.9101 20H13.7875V12.2616H16.4033L16.7847 9.26431H13.7875V7.35695C13.7875 6.48501 14.0054 5.88556 15.2589 5.88556H16.8392V3.16076C16.5668 3.10627 15.6403 3.05177 14.4959 3.05177C12.2071 3.05177 10.6267 4.46866 10.6267 7.02997V9.26431H8.0109V12.2616H10.6267V20H1.08992C0.490463 20 0 19.5095 0 18.9101V1.08992C0 0.490463 0.490463 0 1.08992 0H18.9101C19.5095 0 20 0.490463 20 1.08992V18.9101Z"></path>
  </symbol>
  <symbol viewBox="0 0 20 12" id="vk">
    <path d="M19.891 10.6049C19.891 10.5504 19.8365 10.4959 19.8365 10.4959C19.5095 9.89646 18.8011 9.07902 17.8202 8.20708C17.3842 7.77111 17.1117 7.49864 17.0027 7.33515C16.7847 7.06267 16.7302 6.79019 16.8392 6.51771C16.9482 6.29973 17.2207 5.86376 17.7657 5.15531C18.0381 4.77384 18.2561 4.50136 18.4196 4.28338C19.6185 2.703 20.1635 1.66757 20 1.23161L19.9455 1.12261C19.891 0.959126 19.782 0.90463 19.6185 0.850135C19.455 0.795639 19.2371 0.795639 18.9646 0.850135H15.9673C15.9128 0.850135 15.8583 0.850135 15.7493 0.850135C15.6403 0.850135 15.6403 0.904631 15.6403 0.904631H15.5858L15.5313 0.959127C15.4768 0.959127 15.4768 1.01362 15.4223 1.06812C15.3678 1.12261 15.3678 1.17711 15.3134 1.23161C14.9864 2.04904 14.6049 2.86648 14.2234 3.57493C13.951 4.0109 13.733 4.39237 13.515 4.71934C13.297 5.04632 13.1335 5.2643 12.97 5.42779C12.8065 5.59128 12.6975 5.70027 12.5886 5.80926C12.4796 5.91825 12.3706 5.91825 12.3161 5.91825C12.2616 5.91825 12.2071 5.86376 12.1526 5.86376C12.0436 5.80926 11.9891 5.70027 11.9346 5.59128C11.8801 5.48229 11.8256 5.3733 11.8256 5.20981C11.8256 5.04632 11.7711 4.88283 11.7711 4.77384C11.7711 4.66485 11.7711 4.50136 11.7711 4.28338C11.7711 4.06539 11.7711 3.90191 11.7711 3.84741C11.7711 3.57493 11.7711 3.30245 11.7711 2.97548C11.7711 2.6485 11.7711 2.43052 11.7711 2.26703C11.7711 2.10354 11.7711 1.88556 11.7711 1.66757C11.7711 1.44959 11.7711 1.2861 11.7166 1.17711C11.7166 1.06812 11.6621 0.959126 11.6076 0.850135C11.5531 0.741143 11.4986 0.632151 11.3896 0.577655C11.2807 0.523159 11.1717 0.468664 11.0627 0.414168C10.6812 0.305176 10.2452 0.305176 9.64578 0.305176C8.33788 0.305176 7.52044 0.359671 7.13896 0.577655C6.97548 0.632151 6.86648 0.741143 6.75749 0.904631C6.6485 1.06812 6.59401 1.12261 6.703 1.17711C7.13896 1.23161 7.41144 1.39509 7.57493 1.61308L7.62943 1.72207C7.68392 1.83106 7.73842 1.99455 7.79292 2.21253C7.84741 2.43052 7.84741 2.703 7.90191 2.97548C7.9564 3.46594 7.9564 3.90191 7.90191 4.28338C7.84741 4.66485 7.84741 4.93733 7.79292 5.10082C7.73842 5.3188 7.73842 5.48229 7.62943 5.59128C7.57493 5.70027 7.52044 5.80926 7.52044 5.80926C7.52044 5.86376 7.46594 5.86376 7.46594 5.86376C7.35695 5.91825 7.30245 5.91825 7.19346 5.91825C7.08447 5.91825 6.97548 5.86376 6.86649 5.75477C6.703 5.64577 6.59401 5.53678 6.43052 5.3733C6.26703 5.20981 6.10354 4.99182 5.94005 4.66485C5.77657 4.33787 5.55858 4.0109 5.3406 3.57493L5.17711 3.24795C5.06812 3.02997 4.90463 2.75749 4.74114 2.37602C4.57766 1.99455 4.41417 1.66757 4.25068 1.2861C4.19619 1.17711 4.08719 1.06812 3.9782 0.959127H3.92371C3.86921 0.904631 3.81471 0.90463 3.76022 0.850135C3.70572 0.850135 3.59673 0.795639 3.54223 0.795639H0.708447C0.381471 0.795639 0.163488 0.904631 0.0544959 1.01362V1.06812C0 1.12261 0 1.17711 0 1.23161C0 1.2861 0 1.39509 0.0544959 1.50409C0.490463 2.48501 0.92643 3.41144 1.41689 4.33787C1.90736 5.2643 2.34332 5.97275 2.6703 6.51771C3.05177 7.06267 3.37875 7.60763 3.76022 8.09809C4.14169 8.58855 4.35967 8.91553 4.52316 9.02452C4.63215 9.18801 4.74114 9.24251 4.79564 9.3515L5.06812 9.62398C5.23161 9.78746 5.50409 10.0054 5.77657 10.2234C6.10354 10.4414 6.43052 10.6594 6.86649 10.9319C7.24796 11.1499 7.73842 11.3678 8.22888 11.4768C8.77384 11.6403 9.26431 11.6948 9.75477 11.6403H10.9537C11.1717 11.6403 11.3896 11.5313 11.4986 11.4223L11.5531 11.3678C11.6076 11.3133 11.6076 11.2589 11.6076 11.1499C11.6076 11.0409 11.6621 10.9864 11.6621 10.8774C11.6621 10.6049 11.6621 10.3324 11.7166 10.0599C11.7711 9.84196 11.8256 9.62398 11.8801 9.51498C11.9346 9.40599 12.0436 9.297 12.0981 9.18801C12.2071 9.07902 12.2616 9.07902 12.2616 9.02452C12.3161 9.02452 12.3161 8.97003 12.3706 8.97003C12.5341 8.91553 12.752 8.97003 12.97 9.13351C13.188 9.297 13.406 9.51499 13.624 9.73297C13.842 9.95095 14.0599 10.2234 14.3324 10.5504C14.6049 10.8229 14.8774 11.0954 15.0409 11.2044L15.2589 11.3133C15.4223 11.4223 15.5858 11.4768 15.8038 11.5313C16.0218 11.5858 16.2398 11.6403 16.4033 11.5858L19.0736 11.5313C19.346 11.5313 19.564 11.4768 19.673 11.4223C19.8365 11.3133 19.891 11.2589 19.9455 11.1499C20 11.0409 20 10.9319 19.9455 10.7684C19.9455 10.7684 19.9455 10.6594 19.891 10.6049Z"></path>
  </symbol>
  <symbol viewBox="0 0 20 18" id="tw">
    <path d="M19.455 1.01613C18.6376 1.5066 17.7657 1.83357 16.8392 2.05155C16.0763 1.23412 15.0409 0.743652 13.842 0.743652C11.5531 0.743652 9.75477 2.65101 9.75477 4.93984C9.75477 5.26681 9.80926 5.59379 9.86376 5.92076C6.43052 5.70278 3.43324 4.01341 1.41689 1.4521C1.08992 2.05155 0.871935 2.8145 0.871935 3.57744C0.871935 5.04883 1.58038 6.30224 2.7248 7.06518C2.07084 7.06518 1.41689 6.84719 0.871935 6.52022V6.62921C0.871935 8.64556 2.28883 10.3894 4.14169 10.7709C3.81471 10.8799 3.43324 10.9344 3.05177 10.9344C2.77929 10.9344 2.50681 10.9344 2.28883 10.8799C2.83379 12.5693 4.30518 13.7682 6.10354 13.8227C4.68665 14.9671 2.94278 15.621 0.980926 15.621C0.653951 15.621 0.326975 15.621 0 15.5665C1.79837 16.7654 3.9782 17.4739 6.26703 17.4739C13.842 17.4739 17.9292 11.0434 17.9292 5.4848C17.9292 5.32131 17.9292 5.10332 17.9292 4.93984C18.7466 4.34038 19.455 3.63194 20 2.76C19.2916 3.08698 18.4741 3.30496 17.6567 3.41395C18.4741 2.8145 19.1281 1.99706 19.455 1.01613Z"></path>
  </symbol>
  <symbol viewBox="0 0 44 68" id="benefit-1">
    <path d="M41.8359 60.0312H35.8594V55.7812H38.5223C39.6225 55.7812 40.5145 54.8893 40.5145 53.7891C40.5145 52.6888 39.6225 51.7969 38.5223 51.7969H35.8594V47.8125H41.1785C42.2787 47.8125 43.1707 46.9205 43.1707 45.8203C43.1707 44.7201 42.2787 43.8281 41.1785 43.8281H35.8594V39.8438H38.5223C39.6225 39.8438 40.5145 38.9518 40.5145 37.8516C40.5145 36.7513 39.6225 35.8594 38.5223 35.8594H35.8594V31.875H41.1785C42.2787 31.875 43.1707 30.983 43.1707 29.8828C43.1707 28.7826 42.2787 27.8906 41.1785 27.8906H35.8594V23.9062H38.5223C39.6225 23.9062 40.5145 23.0143 40.5145 21.9141C40.5145 20.8138 39.6225 19.9219 38.5223 19.9219H35.8594V15.9375H41.1785C42.2787 15.9375 43.1707 15.0455 43.1707 13.9453C43.1707 12.8451 42.2787 11.9531 41.1785 11.9531H35.8594V7.96875H38.5223C39.6225 7.96875 40.5145 7.07678 40.5145 5.97656C40.5145 4.87634 39.6225 3.98438 38.5223 3.98438H35.8594V1.99219C35.8594 0.891969 34.9674 0 33.8672 0C32.767 0 31.875 0.891969 31.875 1.99219V60.0312H24.6821L25.7778 42.5H25.9051C27.0053 42.5 27.8973 41.608 27.8973 40.5078V27.2232C27.8973 22.8007 24.9982 19.0441 21.0014 17.7493C22.7475 16.7048 23.9195 14.7956 23.9195 12.6172C23.9195 9.32171 21.2384 6.64062 17.943 6.64062C14.6475 6.64062 11.9664 9.32171 11.9664 12.6172C11.9664 14.7946 13.1373 16.703 14.882 17.7479C10.8831 19.0415 7.98203 22.7991 7.98203 27.2232V40.5078C7.98203 41.608 8.874 42.5 9.97422 42.5H10.0948L11.1905 60.0312H1.99219C0.891969 60.0312 0 60.9232 0 62.0234V66.0078C0 67.108 0.891969 68 1.99219 68C3.09241 68 3.98438 67.108 3.98438 66.0078V64.0156H39.8438V66.0078C39.8438 67.108 40.7357 68 41.8359 68C42.9362 68 43.8281 67.108 43.8281 66.0078V62.0234C43.8281 60.9232 42.9362 60.0312 41.8359 60.0312ZM17.943 10.625C19.0415 10.625 19.9352 11.5187 19.9352 12.6172C19.9352 13.7157 19.0415 14.6094 17.943 14.6094C16.8445 14.6094 15.9508 13.7157 15.9508 12.6172C15.9508 11.5187 16.8443 10.625 17.943 10.625ZM11.9664 27.2232C11.9664 23.9296 14.646 21.25 17.9398 21.25C21.2334 21.25 23.913 23.9296 23.913 27.2232V38.5156H11.9664V27.2232ZM14.0869 42.5H21.7856L20.6899 60.0312H15.1826L14.0869 42.5Z"></path>
  </symbol>
  <symbol viewBox="0 0 64 64" id="benefit-2">
    <path d="M33.875 30.1811V19.8166H38.025C47.9181 19.8166 55.9666 11.768 55.9666 1.875C55.9666 0.8395 55.1271 0 54.0916 0H48.0646C41.0369 0 34.9411 4.06275 31.9996 9.96225C29.0576 4.06262 22.9615 0 15.9334 0H9.90837C8.87288 0 8.03337 0.8395 8.03337 1.875C8.03337 11.7681 16.082 19.8166 25.975 19.8166H30.125V30.1811C13.3249 31.1521 0 45.0815 0 62.125C0 63.1605 0.8395 64 1.875 64H62.125C63.1605 64 64 63.1605 64 62.125C64 45.0815 50.6751 31.1521 33.875 30.1811ZM48.0646 3.75H52.0933C51.1726 10.692 45.2145 16.0666 38.025 16.0666H33.9981C34.9174 9.12425 40.8751 3.75 48.0646 3.75ZM25.975 16.0666C18.7854 16.0666 12.8272 10.692 11.9067 3.75H15.9334C23.123 3.75 29.0811 9.12463 30.0016 16.0666H25.975ZM3.8105 60.25C4.7385 45.9209 15.2449 38.245 22.0917 35.6657V40.3778C22.0917 40.9499 21.8689 41.4879 21.4641 41.8926L15.4391 47.9176C13.1423 50.2145 13.1423 53.9519 15.4391 56.2487L19.44 60.25H3.8105ZM24.7434 60.25L18.0906 53.5973C17.2543 52.7609 17.2534 51.4065 18.0906 50.5692L24.1156 44.5444C25.2288 43.4314 25.8417 41.9516 25.8417 40.3778V34.5489C27.8536 34.1014 29.9191 33.875 32 33.875C36.9144 33.875 41.6772 35.1336 45.9062 37.5337L35.5223 47.9178C33.2226 50.2174 33.2178 53.9449 35.5223 56.2489L39.5234 60.25H24.7434ZM44.8266 60.25L38.1739 53.5971C37.3382 52.7616 37.3371 51.4062 38.1739 50.5692L49.1001 39.6431C55.6121 44.6034 59.6477 52.1131 60.1879 60.2499H44.8266V60.25Z"></path>
  </symbol>
  <symbol viewBox="0 0 68 68" id="benefit-3">
    <path d="M67.58 64.7842C67.4752 64.6494 64.9503 61.4478 59.6006 58.2906C56.9903 56.75 53.3914 55.0512 48.7861 53.8092C49.7611 50.514 50.8711 45.7687 51.3499 40.1027C51.8914 33.6964 51.5072 27.4363 50.2076 21.4964C48.5791 14.0532 45.5041 7.10361 41.0679 0.840703C40.6944 0.313437 40.0884 0 39.4422 0C38.7961 0 38.1901 0.313305 37.8166 0.840703C36.4181 2.81509 35.155 4.85802 34.0297 6.96283C32.9044 4.85788 31.6415 2.81509 30.2428 0.840703C29.8694 0.313437 29.2633 0 28.6172 0C27.9711 0 27.3651 0.313305 26.9916 0.840703C22.5554 7.10348 19.4804 14.053 17.8518 21.4965C16.5523 27.4364 16.168 33.6964 16.7095 40.1029C17.2019 45.9283 18.3614 50.7807 19.3554 54.0843C15.1095 55.2884 11.6855 56.8436 9.12061 58.2632C3.46718 61.3926 0.622734 64.5502 0.504398 64.683C-0.0175553 65.2692 -0.146649 66.1072 0.174492 66.8232C0.495632 67.5391 1.20737 68 1.99216 68H66.0078C66.7688 68 67.4633 67.5664 67.7976 66.8828C68.1317 66.1992 68.0474 65.3849 67.58 64.7842ZM20.9628 26.9581L34.3264 17.8771C34.7222 19.1401 35.0719 20.4201 35.3722 21.7176L20.5296 31.8038C20.6034 30.2441 20.7425 28.6243 20.9628 26.9581ZM21.9738 21.4539C23.1906 16.3163 25.2642 10.9068 28.6188 5.57441C30.3273 8.279 31.7667 11.0904 32.9405 14.0015L21.9738 21.4539ZM20.4961 36.6438L36.179 25.9865C36.8241 30.3597 36.9548 34.9112 36.5666 39.6274C36.1538 44.6411 35.1975 48.9293 34.323 52.0159C30.2386 52.0394 26.5399 52.4701 23.2384 53.1424C22.2965 50.0504 21.1538 45.3767 20.6797 39.7673C20.5957 38.7749 20.5323 37.7314 20.4961 36.6438ZM34.6735 55.9971C45.4742 55.9971 52.9886 59.0514 57.3905 61.6136C58.8019 62.4352 59.9934 63.2602 60.9717 64.0156H7.43402C12.1776 60.6701 21.2129 55.9971 34.6735 55.9971ZM39.444 5.57441C45.7576 15.5693 48.4302 27.0098 47.3915 39.6274C46.9364 45.1541 45.8212 49.7995 44.8829 52.9247C42.8862 52.5547 40.7358 52.2795 38.4326 52.133C39.2726 48.9847 40.1222 44.8692 40.5251 40.1029C41.0665 33.6965 40.6823 27.4364 39.3827 21.4965C38.6317 18.0636 37.5721 14.7359 36.214 11.532C37.1285 9.54749 38.1975 7.55557 39.444 5.57441Z"></path>
  </symbol>
  <symbol viewBox="0 0 13 15" id="phone">
    <path d="M12.669 13.1545C12.4344 13.6557 11.9652 13.9063 11.4959 14.1569C10.9094 14.5327 10.4402 14.658 9.85367 14.658C9.03253 14.658 8.21139 14.2822 7.50756 14.0316C6.92103 13.781 6.45181 13.5304 5.86528 13.2798C4.223 12.1522 2.34611 10.1474 1.40767 8.51861C1.05575 7.89214 0.821139 7.39096 0.586528 6.76449C0.351917 5.88743 0 5.13567 0 4.13331C0 3.50684 0.117306 2.88037 0.469222 2.25389C0.703833 1.75272 0.938445 1.25154 1.40767 1.00095C1.75958 1.00095 2.34611 0.875656 2.69803 0.875656C2.81533 0.875656 2.81533 0.875656 2.93264 0.875656C3.16725 1.00095 3.28456 1.37683 3.40186 1.62742C3.63647 2.25389 3.98839 2.75507 4.223 3.38154C4.45761 3.63213 4.69222 3.88272 4.69222 4.13331C4.69222 4.75978 3.04994 5.63684 3.04994 6.13802C3.04994 6.38861 3.28456 6.76449 3.40186 7.01508C4.34031 8.7692 5.51336 10.0221 7.15564 11.0245C7.39025 11.1498 7.74217 11.4004 7.97678 11.4004C8.446 11.4004 9.26714 9.64626 9.85367 9.64626C10.0883 9.64626 10.3229 9.89685 10.5575 10.1474C11.0267 10.5233 11.6133 10.7739 12.0825 11.1498C12.3171 11.2751 12.669 11.4004 12.7863 11.651C12.7863 11.7763 12.7863 11.7763 12.7863 11.9016C12.9036 12.1522 12.7863 12.7786 12.669 13.1545Z"></path>
  </symbol>
  <symbol viewBox="0 0 56 40" id="logo">
    <path d="M12.5753 18.552C11.5673 18.552 10.6793 18.376 9.91133 18.024C9.14335 17.672 8.55135 17.184 8.13535 16.56C7.71935 15.92 7.51135 15.184 7.51135 14.352C7.51135 13.648 7.65534 13.008 7.94335 12.432C8.24734 11.856 8.64734 11.4 9.14334 11.064C9.65534 10.728 10.2153 10.56 10.8233 10.56C11.3833 10.56 11.8553 10.704 12.2393 10.992C12.6233 11.264 12.8633 11.648 12.9593 12.144C12.1273 12.144 11.4633 12.368 10.9673 12.816C10.4713 13.248 10.2233 13.84 10.2233 14.592C10.2233 15.28 10.4313 15.832 10.8473 16.248C11.2633 16.664 11.8153 16.872 12.5033 16.872C13.3513 16.872 14.0473 16.592 14.5913 16.032C15.1513 15.456 15.4313 14.736 15.4313 13.872C15.4313 13.12 15.2233 12.408 14.8073 11.736C14.3913 11.064 13.7673 10.248 12.9353 9.288C12.0713 8.296 11.4153 7.448 10.9673 6.744C10.5353 6.024 10.3193 5.24 10.3193 4.392C10.3193 3.56 10.5513 2.816 11.0153 2.16C11.4793 1.488 12.1193 0.960001 12.9353 0.576001C13.7513 0.192001 14.6713 0 15.6953 0C16.9913 0 18.0233 0.304001 18.7913 0.912001C19.5753 1.52 19.9673 2.336 19.9673 3.36C19.9673 4.032 19.7993 4.576 19.4633 4.992C19.1273 5.408 18.6873 5.616 18.1433 5.616C17.5353 5.616 17.0473 5.368 16.6793 4.872C16.9833 4.648 17.2233 4.352 17.3993 3.984C17.5753 3.616 17.6633 3.232 17.6633 2.832C17.6633 2.32 17.5113 1.912 17.2073 1.608C16.9033 1.304 16.4873 1.152 15.9593 1.152C15.3193 1.152 14.7913 1.384 14.3753 1.848C13.9753 2.296 13.7753 2.872 13.7753 3.576C13.7753 4.216 13.9593 4.816 14.3273 5.376C14.6953 5.92 15.2713 6.624 16.0553 7.488C16.6953 8.176 17.2073 8.768 17.5913 9.264C17.9913 9.76 18.3273 10.336 18.5993 10.992C18.8873 11.632 19.0313 12.328 19.0313 13.08C19.0313 14.104 18.7433 15.032 18.1673 15.864C17.6073 16.696 16.8313 17.352 15.8393 17.832C14.8633 18.312 13.7753 18.552 12.5753 18.552ZM22.7588 18.264C21.9908 18.264 21.3668 18.024 20.8868 17.544C20.4228 17.064 20.1908 16.344 20.1908 15.384C20.1908 14.984 20.2548 14.464 20.3828 13.824L22.0148 6.12H25.4708L23.7428 14.28C23.6948 14.52 23.6708 14.744 23.6708 14.952C23.6708 15.608 23.9108 15.936 24.3908 15.936C24.8388 15.936 25.2228 15.752 25.5428 15.384C25.8628 15 26.1188 14.48 26.3108 13.824L27.9428 6.12H31.3988L29.6708 14.28C29.6068 14.52 29.5748 14.776 29.5748 15.048C29.5748 15.368 29.6468 15.6 29.7908 15.744C29.9508 15.872 30.2068 15.936 30.5588 15.936C31.0068 15.936 31.3908 15.744 31.7108 15.36C32.0468 14.976 32.3108 14.464 32.5028 13.824H33.5108C32.9188 15.552 32.1828 16.728 31.3028 17.352C30.4388 17.96 29.5668 18.264 28.6868 18.264C27.9988 18.264 27.4468 18.072 27.0308 17.688C26.6308 17.304 26.3908 16.736 26.3108 15.984C25.7668 16.864 25.1908 17.464 24.5828 17.784C23.9908 18.104 23.3828 18.264 22.7588 18.264ZM34.132 6.12H37.588L37.276 7.608C37.82 7.128 38.308 6.76 38.74 6.504C39.188 6.248 39.668 6.12 40.18 6.12C40.692 6.12 41.092 6.296 41.38 6.648C41.684 7 41.836 7.424 41.836 7.92C41.836 8.384 41.684 8.792 41.38 9.144C41.076 9.496 40.652 9.672 40.108 9.672C39.756 9.672 39.516 9.592 39.388 9.432C39.276 9.256 39.188 9.008 39.124 8.688C39.076 8.48 39.028 8.328 38.98 8.232C38.932 8.136 38.844 8.088 38.716 8.088C38.38 8.088 38.092 8.16 37.852 8.304C37.628 8.432 37.332 8.664 36.964 9L35.044 18.12H31.588L34.132 6.12ZM39.3634 24.12C38.6114 24.12 37.9554 23.872 37.3954 23.376C36.8194 22.896 36.5314 22.28 36.5314 21.528C36.5314 20.84 36.7074 20.272 37.0594 19.824C37.4114 19.376 37.8674 19.016 38.4274 18.744C38.9874 18.488 39.7314 18.216 40.6594 17.928L43.5634 4.224C43.8834 2.688 44.4434 1.624 45.2434 1.032C46.0594 0.440001 46.9554 0.144001 47.9314 0.144001C48.6834 0.144001 49.3394 0.392001 49.8994 0.888001C50.4754 1.368 50.7634 1.984 50.7634 2.736C50.7634 3.104 50.7394 3.432 50.6914 3.72H49.5634C49.5954 3.368 49.6114 3.152 49.6114 3.072C49.6114 2.816 49.5234 2.616 49.3474 2.472C49.1714 2.328 48.9554 2.256 48.6994 2.256C48.3634 2.256 48.0354 2.408 47.7154 2.712C47.3954 3 47.1634 3.504 47.0194 4.224L46.6114 6.12H48.3634L48.1954 7.08H46.4194L43.6594 20.04C43.3394 21.592 42.7874 22.656 42.0034 23.232C41.2194 23.824 40.3394 24.12 39.3634 24.12ZM38.8114 21.984C39.4514 21.984 39.9074 21.36 40.1794 20.112L40.4914 18.72C39.6434 19.008 38.9954 19.336 38.5474 19.704C38.0834 20.088 37.8514 20.584 37.8514 21.192C37.8514 21.384 37.9474 21.56 38.1394 21.72C38.3314 21.896 38.5554 21.984 38.8114 21.984ZM3.36 39.264C2.272 39.264 1.44 39 0.864005 38.472C0.288 37.928 0 37.168 0 36.192C0 35.712 0.056 35.256 0.168 34.824L2.73601 22.8L6.28801 22.32L5.13601 27.72C5.58401 27.448 5.952 27.272 6.24001 27.192C6.52801 27.096 6.81601 27.048 7.10401 27.048C8.99201 27.048 9.93603 28.416 9.93603 31.152C9.93603 32.256 9.72001 33.44 9.288 34.704C8.872 35.952 8.168 37.024 7.17601 37.92C6.20001 38.816 4.928 39.264 3.36 39.264ZM4.70401 36.936C5.20001 36.936 5.66401 36.632 6.09601 36.024C6.52801 35.4 6.872 34.632 7.12801 33.72C7.38401 32.792 7.51201 31.904 7.51201 31.056C7.51201 30.416 7.40001 29.872 7.17601 29.424C6.95201 28.976 6.64001 28.752 6.24001 28.752C6.00001 28.752 5.728 28.792 5.42401 28.872C5.136 28.936 4.93601 29.04 4.82401 29.184L3.504 35.28C3.456 35.472 3.432 35.656 3.432 35.832C3.432 36.568 3.85601 36.936 4.70401 36.936ZM14.336 39.216C13.152 39.216 12.216 38.912 11.528 38.304C10.84 37.696 10.496 36.736 10.496 35.424C10.496 34.336 10.72 33.128 11.168 31.8C11.616 30.472 12.336 29.328 13.328 28.368C14.32 27.392 15.568 26.904 17.072 26.904C19.12 26.904 20.144 28.184 20.144 30.744V30.768C20.192 30.784 20.28 30.792 20.408 30.792C20.936 30.792 21.544 30.656 22.232 30.384C22.92 30.096 23.544 29.752 24.104 29.352L24.32 30C23.856 30.496 23.248 30.92 22.496 31.272C21.76 31.608 20.952 31.848 20.072 31.992C19.944 33.448 19.616 34.72 19.088 35.808C18.56 36.896 17.88 37.736 17.048 38.328C16.216 38.92 15.312 39.216 14.336 39.216ZM15.296 37.056C15.68 37.056 16.064 36.84 16.448 36.408C16.832 35.96 17.168 35.36 17.456 34.608C17.744 33.84 17.952 32.992 18.08 32.064C17.648 31.968 17.432 31.632 17.432 31.056C17.432 30.4 17.68 29.968 18.176 29.76C18.144 29.232 18.064 28.872 17.936 28.68C17.808 28.472 17.584 28.368 17.264 28.368C16.736 28.368 16.224 28.752 15.728 29.52C15.232 30.288 14.832 31.208 14.528 32.28C14.224 33.352 14.072 34.296 14.072 35.112C14.072 35.88 14.16 36.4 14.336 36.672C14.512 36.928 14.832 37.056 15.296 37.056ZM24.2589 39.264C23.3469 39.264 22.5869 38.952 21.9789 38.328C21.3709 37.704 21.0669 36.728 21.0669 35.4C21.0669 34.216 21.2989 32.976 21.7629 31.68C22.2429 30.368 22.9469 29.264 23.8749 28.368C24.8189 27.456 25.9389 27 27.2349 27C27.8909 27 28.3789 27.112 28.6989 27.336C29.0189 27.56 29.1789 27.856 29.1789 28.224V28.392L29.4429 27.12H32.8989L31.1709 35.28C31.1069 35.52 31.0749 35.776 31.0749 36.048C31.0749 36.736 31.4029 37.08 32.0589 37.08C32.5069 37.08 32.8909 36.872 33.2109 36.456C33.5469 36.04 33.8109 35.496 34.0029 34.824H35.0109C34.4189 36.552 33.6829 37.728 32.8029 38.352C31.9389 38.96 31.0669 39.264 30.1869 39.264C29.5149 39.264 28.9709 39.08 28.5549 38.712C28.1549 38.328 27.9149 37.776 27.8349 37.056C27.3709 37.712 26.8509 38.248 26.2749 38.664C25.7149 39.064 25.0429 39.264 24.2589 39.264ZM25.8189 36.936C26.2189 36.936 26.6109 36.752 26.9949 36.384C27.3949 36 27.6669 35.48 27.8109 34.824L28.9629 29.4C28.9629 29.192 28.8829 28.992 28.7229 28.8C28.5629 28.592 28.3149 28.488 27.9789 28.488C27.3389 28.488 26.7629 28.864 26.2509 29.616C25.7389 30.352 25.3389 31.248 25.0509 32.304C24.7629 33.344 24.6189 34.264 24.6189 35.064C24.6189 35.864 24.7309 36.376 24.9549 36.6C25.1949 36.824 25.4829 36.936 25.8189 36.936ZM35.6437 27.12H39.0997L38.7877 28.608C39.3317 28.128 39.8197 27.76 40.2517 27.504C40.6997 27.248 41.1797 27.12 41.6917 27.12C42.2037 27.12 42.6037 27.296 42.8917 27.648C43.1957 28 43.3477 28.424 43.3477 28.92C43.3477 29.384 43.1957 29.792 42.8917 30.144C42.5877 30.496 42.1637 30.672 41.6197 30.672C41.2677 30.672 41.0277 30.592 40.8997 30.432C40.7877 30.256 40.6997 30.008 40.6357 29.688C40.5877 29.48 40.5397 29.328 40.4917 29.232C40.4437 29.136 40.3557 29.088 40.2277 29.088C39.8917 29.088 39.6037 29.16 39.3637 29.304C39.1397 29.432 38.8437 29.664 38.4757 30L36.5557 39.12H33.0997L35.6437 27.12ZM45.9152 39.264C45.0032 39.264 44.2432 38.952 43.6352 38.328C43.0272 37.704 42.7232 36.728 42.7232 35.4C42.7232 34.216 42.9552 32.976 43.4192 31.68C43.8992 30.368 44.6032 29.264 45.5312 28.368C46.4752 27.456 47.5952 27 48.8912 27C49.5472 27 50.0352 27.112 50.3552 27.336C50.6752 27.56 50.8352 27.856 50.8352 28.224V28.32L52.0112 22.8L55.5632 22.32L52.8032 35.28C52.7392 35.52 52.7072 35.752 52.7072 35.976C52.7072 36.616 53.0352 36.936 53.6912 36.936C53.9792 36.936 54.2352 36.888 54.4592 36.792C54.3952 37.592 54.1072 38.208 53.5952 38.64C53.0992 39.056 52.5072 39.264 51.8192 39.264C51.1792 39.264 50.6352 39.104 50.1872 38.784C49.7552 38.448 49.4672 37.944 49.3232 37.272C48.3632 38.6 47.2272 39.264 45.9152 39.264ZM47.4752 36.936C47.8272 36.936 48.1792 36.784 48.5312 36.48C48.8992 36.176 49.1712 35.752 49.3472 35.208L49.4432 34.824L50.6192 29.328C50.4752 28.768 50.1472 28.488 49.6352 28.488C48.9952 28.488 48.4192 28.864 47.9072 29.616C47.3952 30.352 46.9952 31.248 46.7072 32.304C46.4192 33.344 46.2752 34.264 46.2752 35.064C46.2752 35.864 46.3872 36.376 46.6112 36.6C46.8512 36.824 47.1392 36.936 47.4752 36.936Z"></path>
  </symbol>
  <symbol viewBox="0 0 35 35" id="feature-1">
    <path d="M34.5485 0.451516C34.3352 0.238139 34.0379 0.130367 33.7376 0.15814C33.6123 0.16952 30.6209 0.454022 26.5183 1.83108C13.1663 5.94322 4.32974 18.8899 0.220651 28.2558C-0.0379964 28.8743 0.484582 29.7021 1.26676 29.6337L5.80535 29.1922L5.36386 33.7304C5.31549 34.3828 5.94883 35.0699 6.74184 34.7764C23.0466 27.3472 32.9919 15.976 34.8419 1.26228C34.8694 0.961858 34.7619 0.664757 34.5485 0.451516ZM21.4105 22.7881C19.6089 24.4277 17.8329 25.8372 16.1913 27.0245V9.72113C17.9122 8.31082 19.6957 7.16773 21.4105 6.24486V22.7881ZM11.4936 30.0991C9.88016 31.0471 8.5183 31.7389 7.55511 32.1956L7.94776 28.1597C8.00602 27.6346 7.52022 26.9703 6.83797 27.05L2.8034 27.4424C4.16641 24.5507 7.83733 17.8176 14.159 11.5514V28.4322C13.1849 29.0781 12.286 29.6336 11.4936 30.0991ZM31.2232 7.89084C30.0298 11.4275 27.7123 16.5335 23.4428 20.8442V5.2325C26.2239 3.88932 30.4729 2.68533 32.6337 2.36608C32.4266 3.57955 32.0109 5.55616 31.2232 7.89084Z"></path>
  </symbol>
  <symbol viewBox="0 0 35 35" id="feature-2">
    <path d="M33.8298 12.4181H26.5562C26.5569 12.4117 26.5579 12.4054 26.5586 12.3991C27.405 11.6708 28.0815 10.8061 28.5729 9.82357C28.7304 9.50849 28.7136 9.13433 28.5284 8.8347C28.3432 8.53501 28.016 8.3526 27.6638 8.3526H26.0949C25.7545 7.38962 25.2576 6.50036 24.6109 5.69742C24.6938 4.58516 24.5607 3.4969 24.2137 2.45599C24.1023 2.12181 23.8258 1.86914 23.483 1.78823C23.1401 1.70726 22.7799 1.80971 22.5308 2.05872L21.4191 3.17037C20.5006 2.73129 19.5227 2.45416 18.4992 2.34311C17.7321 1.43955 16.848 0.724357 15.9218 0.261161C15.6067 0.103623 15.2326 0.120427 14.9328 0.30561C14.6333 0.490794 14.4509 0.817932 14.4509 1.17021V2.80684C13.4879 3.14719 12.5986 3.6442 11.7957 4.29082C10.6836 4.20795 9.59509 4.3411 8.55439 4.68809C8.22021 4.79948 7.96754 5.07601 7.88663 5.4188C7.80573 5.76159 7.90804 6.12192 8.15712 6.37094L9.26857 7.48245C8.82922 8.40159 8.55195 9.38016 8.4411 10.4045C7.76013 10.9905 7.18933 11.665 6.73623 12.4182H1.17022C0.608905 12.4182 0.153839 12.8732 0.153839 13.4345V17.5001C0.153839 18.0614 0.608905 18.5164 1.17022 18.5164H2.25435V33.8298C2.25435 34.3911 2.70942 34.8462 3.27073 34.8462H7.33623C7.89754 34.8462 8.35261 34.3911 8.35261 33.8298V30.3847L17.5 26.7258L26.6474 30.3847V33.8298C26.6474 34.3911 27.1024 34.8461 27.6638 34.8461H31.7293C32.2906 34.8461 32.7456 34.3911 32.7456 33.8298V18.5164H33.8298C34.3911 18.5164 34.8461 18.0613 34.8461 17.5V13.4345C34.8461 12.8732 34.3911 12.4181 33.8298 12.4181ZM10.0399 11.7226C10.2717 11.5431 10.4147 11.2723 10.4322 10.9796C10.5 9.84511 10.8237 8.77921 11.3944 7.81155C11.6298 7.41232 11.5652 6.90433 11.2376 6.57658L10.9639 6.30291C11.3037 6.29247 11.6479 6.30921 11.9952 6.35318C12.286 6.39004 12.5787 6.29952 12.798 6.10471C13.6472 5.35029 14.631 4.82455 15.722 4.542C16.1704 4.426 16.4836 4.02141 16.4836 3.55822V3.15607C16.7255 3.39404 16.9585 3.65687 17.179 3.94173C17.3585 4.17353 17.6293 4.3165 17.922 4.33398C19.0564 4.40174 20.1223 4.72549 21.0901 5.29615C21.4894 5.53155 21.9973 5.46704 22.325 5.13936L22.5988 4.86562C22.6092 5.20542 22.5925 5.54971 22.5485 5.89697C22.5117 6.18785 22.6022 6.4805 22.797 6.69977C23.5514 7.54905 24.0772 8.53284 24.3597 9.62382C24.4758 10.0722 24.8804 10.3854 25.3436 10.3854H25.7272C25.4937 10.6338 25.2377 10.8659 24.9602 11.0808C24.7284 11.2603 24.5854 11.5311 24.5679 11.8238C24.556 12.023 24.5354 12.2214 24.5072 12.4182H20.3743C20.4871 12.1 20.5491 11.7581 20.5491 11.4018C20.5491 9.72051 19.1813 8.35267 17.5 8.35267C15.8187 8.35267 14.4509 9.72051 14.4509 11.4018C14.4509 11.7581 14.5129 12.1 14.6257 12.4182H9.27331C9.50687 12.1698 9.76239 11.9375 10.0399 11.7226ZM18.5164 11.4017C18.5164 11.9622 18.0604 12.4181 17.5 12.4181C16.9396 12.4181 16.4836 11.9622 16.4836 11.4017C16.4836 10.8413 16.9396 10.3854 17.5 10.3854C18.0604 10.3854 18.5164 10.8413 18.5164 11.4017ZM6.31985 32.8134H4.2871V18.5164H6.31985C6.31985 18.5094 6.31992 28.5516 6.31985 32.8134ZM8.35261 28.1953V23.0667L14.7633 25.631L8.35261 28.1953ZM26.6474 28.1953L20.2367 25.631L26.6474 23.0667V28.1953ZM26.6474 20.8774L17.5 24.5364L8.35261 20.8774V18.5164H26.6474V20.8774ZM30.7129 32.8134H28.6801C28.6801 31.0105 28.6801 20.6905 28.6801 18.5164H30.7129V32.8134ZM32.8134 16.4836H2.18659V14.4509H32.8134V16.4836Z"></path>
  </symbol>
  <symbol viewBox="0 0 35 25" id="feature-3">
    <path d="M26.3553 15.9785C23.944 15.9785 21.9823 17.9402 21.9823 20.3515C21.9823 22.7628 23.944 24.7245 26.3553 24.7245C28.767 24.7245 30.7283 22.7628 30.7283 20.3515C30.7283 17.9402 28.7666 15.9785 26.3553 15.9785ZM26.3553 22.538C25.1494 22.538 24.1688 21.5573 24.1688 20.3515C24.1688 19.1456 25.1494 18.165 26.3553 18.165C27.5611 18.165 28.5418 19.1456 28.5418 20.3515C28.5418 21.5574 27.5611 22.538 26.3553 22.538Z"></path>
    <path d="M11.4143 15.9785C9.00296 15.9785 7.04129 17.9402 7.04129 20.3515C7.04129 22.7628 9.00296 24.7245 11.4143 24.7245C13.8256 24.7245 15.7873 22.7628 15.7873 20.3515C15.7873 17.9402 13.8256 15.9785 11.4143 15.9785ZM11.4143 22.538C10.2084 22.538 9.22778 21.5573 9.22778 20.3515C9.22778 19.1456 10.2084 18.165 11.4143 18.165C12.6198 18.165 13.6008 19.1456 13.6008 20.3515C13.6008 21.5574 12.6201 22.538 11.4143 22.538Z"></path>
    <path d="M29.3001 3.4616C29.1143 3.09245 28.7364 2.85956 28.3231 2.85956H22.5653V5.04606H27.6489L30.6258 10.9671L32.5798 9.98456L29.3001 3.4616Z"></path>
    <path d="M23.0756 19.2947H14.8033V21.4812H23.0756V19.2947Z"></path>
    <path d="M8.1345 19.2947H4.34464C3.74078 19.2947 3.25143 19.7841 3.25143 20.3879C3.25143 20.9918 3.74084 21.4811 4.34464 21.4811H8.13457C8.73843 21.4811 9.22779 20.9917 9.22779 20.3879C9.22779 19.7841 8.73837 19.2947 8.1345 19.2947Z"></path>
    <path d="M34.6166 12.6113L32.4662 9.84173C32.2596 9.57497 31.9407 9.41898 31.6029 9.41898H23.6586V1.76628C23.6586 1.16242 23.1692 0.673065 22.5654 0.673065H4.34464C3.74078 0.673065 3.25143 1.16248 3.25143 1.76628C3.25143 2.37007 3.74084 2.85949 4.34464 2.85949H21.4721V10.5122C21.4721 11.1161 21.9616 11.6054 22.5653 11.6054H31.0675L32.6597 13.6563V19.2946H29.635C29.0311 19.2946 28.5418 19.784 28.5418 20.3878C28.5418 20.9917 29.0312 21.481 29.635 21.481H33.7529C34.3567 21.481 34.8461 20.9916 34.8462 20.3878V13.2818C34.8462 13.0391 34.7652 12.803 34.6166 12.6113Z"></path>
    <path d="M8.06166 13.7556H3.0327C2.42884 13.7556 1.93949 14.245 1.93949 14.8488C1.93949 15.4527 2.42891 15.942 3.0327 15.942H8.06159C8.66546 15.942 9.15481 15.4526 9.15481 14.8488C9.15488 14.245 8.66546 13.7556 8.06166 13.7556Z"></path>
    <path d="M10.5761 9.45544H1.24706C0.643266 9.45544 0.153847 9.94486 0.153847 10.5487C0.153847 11.1526 0.643266 11.6419 1.24706 11.6419H10.5761C11.18 11.6419 11.6693 11.1525 11.6693 10.5487C11.6693 9.94493 11.18 9.45544 10.5761 9.45544Z"></path>
    <path d="M12.3617 5.15536H3.0327C2.42884 5.15536 1.93949 5.64478 1.93949 6.24857C1.93949 6.85244 2.42891 7.34179 3.0327 7.34179H12.3617C12.9656 7.34179 13.455 6.85237 13.455 6.24857C13.455 5.64478 12.9656 5.15536 12.3617 5.15536Z"></path>
  </symbol>
  <symbol viewBox="0 0 38 38" id="param">
    <path d="M18.2132 0.326128L11.5439 6.99543C11.1091 7.43012 11.1091 8.13505 11.5439 8.56983L14.693 11.7189C14.9565 11.9824 15.3191 12.0865 15.6606 12.0304V15.6602H12.0307C12.088 15.3124 11.9769 14.9502 11.7194 14.6927L8.57027 11.5436C8.13587 11.1091 7.43056 11.1088 6.99586 11.5436L0.326568 18.2128C-0.108205 18.6475 -0.108205 19.3525 0.326568 19.7873L6.99586 26.4566C7.43027 26.891 8.13557 26.8913 8.57027 26.4566L11.7194 23.3074C11.9771 23.0497 12.0879 22.6874 12.0307 22.3399H15.6605V25.9697C15.3191 25.9136 14.9563 26.0177 14.6929 26.2811L11.5438 29.4302C11.1091 29.8649 11.1091 30.5698 11.5438 31.0046L18.2131 37.6739C18.6479 38.1087 19.3528 38.1087 19.7875 37.6739L26.4568 31.0046C26.8912 30.5701 26.8916 29.8649 26.4568 29.4302L23.3077 26.2811C23.0443 26.0177 22.6816 25.9136 22.3402 25.9697V22.3399H25.9701C25.9128 22.6878 26.0239 23.05 26.2815 23.3074L29.4306 26.4566C29.865 26.8911 30.5703 26.8914 31.005 26.4566L37.6743 19.7873C38.109 19.3526 38.109 18.6477 37.6743 18.2129L31.005 11.5436C30.5706 11.1091 29.8653 11.1089 29.4306 11.5436L26.2815 14.6928C26.0237 14.9505 25.9129 15.3128 25.9701 15.6603H22.3402V12.0305C22.6816 12.0865 23.0443 11.9825 23.3077 11.7191L26.4568 8.56998C26.8914 8.1355 26.8915 7.43035 26.4568 6.99557L19.7875 0.326276C19.3528 -0.108571 18.6479 -0.108571 18.2132 0.326128ZM22.5206 9.35736L22.0142 8.85097C21.3157 8.15235 20.1137 8.64694 20.1137 9.63813V16.7735C20.1137 17.3884 20.6121 17.8868 21.2269 17.8868H28.3623C29.3507 17.8868 29.8502 16.687 29.1495 15.9864L28.6431 15.48L30.2178 13.9052L35.3127 19.0001L30.2179 24.0951L28.6432 22.5203L29.1496 22.0139C29.8484 21.315 29.3532 20.1134 28.3623 20.1134H21.2269C20.6121 20.1134 20.1137 20.6118 20.1137 21.2267V28.362C20.1137 29.3538 21.3162 29.8474 22.0141 29.1492L22.5205 28.6428L24.0952 30.2175L19.0004 35.3124L13.9056 30.2174L15.4802 28.6427L15.9867 29.1491C16.6853 29.848 17.8871 29.3529 17.8871 28.362V21.2267C17.8871 20.6118 17.3886 20.1134 16.7738 20.1134H9.63842C8.65005 20.1134 8.15056 21.3132 8.85126 22.0138L9.35765 22.5202L7.78295 24.095L2.68806 19.0001L7.78288 13.9051L9.35758 15.4799L8.85118 15.9863C8.15234 16.6852 8.64753 17.8868 9.63842 17.8868H16.7738C17.3886 17.8868 17.8871 17.3884 17.8871 16.7735V9.63813C17.8871 8.65021 16.6874 8.1502 15.9867 8.85097L15.4802 9.35736L13.9056 7.78266L19.0004 2.68769L24.0952 7.78266L22.5206 9.35736Z" fill="white"/>
  </symbol>
  <symbol viewBox="0 0 24 15" id="modal-1">
    <path d="M7.00642 4.09528L7.00723 0L0 7.00964L7.00723 14.0185L7.00642 9.9232L16.992 9.92481V14.0185L24 7.00964L16.992 0V4.09528H7.00642Z"/>
  </symbol>
  <symbol viewBox="0 0 24 24" id="modal-3">
    <path d="M22.5938 5.48438H1.45312C0.6765 5.48438 0.046875 6.114 0.046875 6.89062C0.046875 7.66725 0.6765 8.29688 1.45312 8.29688H22.5938C23.3704 8.29688 24 7.66725 24 6.89062C24 6.114 23.3704 5.48438 22.5938 5.48438Z"/>
    <path d="M23.0625 0H0.9375C0.419719 0 0 0.419719 0 0.9375C0 1.45528 0.419719 1.875 0.9375 1.875H23.0625C23.5803 1.875 24 1.45528 24 0.9375C24 0.419719 23.5803 0 23.0625 0Z"/>
    <path d="M21.6562 19.3125H2.39062C1.09622 19.3125 0.046875 20.3618 0.046875 21.6562C0.046875 22.9507 1.09622 24 2.39062 24H21.6562C22.9507 24 24 22.9507 24 21.6562C24 20.3618 22.9507 19.3125 21.6562 19.3125Z"/>
    <path d="M22.125 11.9062H1.92188C0.886359 11.9062 0.046875 12.7457 0.046875 13.7812C0.046875 14.8168 0.886359 15.6562 1.92188 15.6562H22.125C23.1605 15.6562 24 14.8168 24 13.7812C24 12.7457 23.1605 11.9062 22.125 11.9062Z"/>
  </symbol>
  <symbol viewBox="0 0 18 24" id="modal-4">
    <path d="M17 22H16V18.727C16 17.099 15.307 15.541 14.097 14.453L12.404 12.93C12.137 12.689 11.99 12.359 11.99 12C11.99 11.641 12.137 11.311 12.404 11.071L14.097 9.548C15.307 8.458 16 6.901 16 5.273V2H17C17.553 2 18 1.552 18 1C18 0.448 17.553 0 17 0H1C0.447 0 0 0.448 0 1C0 1.552 0.447 2 1 2H2V5.273C2 6.901 2.693 8.459 3.903 9.547L5.596 11.07C5.863 11.311 6.01 11.641 6.01 12C6.01 12.359 5.863 12.689 5.596 12.929L3.903 14.452C2.693 15.542 2 17.099 2 18.727V22H1C0.447 22 0 22.448 0 23C0 23.552 0.447 24 1 24H17C17.553 24 18 23.552 18 23C18 22.448 17.553 22 17 22ZM5 18.829C5 18.094 5.286 17.404 5.806 16.884L8.47 14.22C8.763 13.927 9.238 13.927 9.531 14.22L12.195 16.884C12.715 17.404 13.001 18.094 13.001 18.829V22H5V18.829Z"/>
  </symbol>
  <symbol viewBox="0 0 24 24" id="modal-5">
    <path d="M22.983 21.137L20.8878 8.62074C20.6908 7.4406 19.6687 6.57811 18.4724 6.57811H15.3245C15.6937 5.93501 15.9047 5.19002 15.9047 4.39667C15.9047 1.97245 13.9328 0 11.5081 0C9.08383 0 7.11138 1.97245 7.11138 4.39667C7.11138 5.19002 7.32246 5.93501 7.69158 6.57811H4.54367C3.34689 6.57811 2.32532 7.44164 2.12828 8.62178L0.0336613 21.1396C-0.0853925 21.8492 0.114764 22.5797 0.580061 23.1287C1.04588 23.6782 1.72901 24 2.44957 24H20.5686C21.2892 24 21.9723 23.6782 22.4381 23.1287C22.9029 22.5786 23.1025 21.8472 22.983 21.137ZM11.5086 2.56148C12.5203 2.56148 13.3438 3.38498 13.3438 4.39719C13.3438 5.40941 12.5203 6.23239 11.5086 6.23239C10.4964 6.23239 9.67286 5.40889 9.67286 4.39667C9.67286 3.38446 10.4964 2.56148 11.5086 2.56148Z"/>
  </sybmol>
</svg>  