<svg width="64" height="64" viewBox="0 0 64 64" fill="none" xmlns="http://www.w3.org/2000/svg">
<path d="M33.875 30.1811V19.8166H38.025C47.9181 19.8166 55.9666 11.768 55.9666 1.875C55.9666 0.8395 55.1271 0 54.0916 0H48.0646C41.0369 0 34.9411 4.06275 31.9996 9.96225C29.0576 4.06262 22.9615 0 15.9334 0H9.90837C8.87288 0 8.03337 0.8395 8.03337 1.875C8.03337 11.7681 16.082 19.8166 25.975 19.8166H30.125V30.1811C13.3249 31.1521 0 45.0815 0 62.125C0 63.1605 0.8395 64 1.875 64H62.125C63.1605 64 64 63.1605 64 62.125C64 45.0815 50.6751 31.1521 33.875 30.1811ZM48.0646 3.75H52.0933C51.1726 10.692 45.2145 16.0666 38.025 16.0666H33.9981C34.9174 9.12425 40.8751 3.75 48.0646 3.75ZM25.975 16.0666C18.7854 16.0666 12.8272 10.692 11.9067 3.75H15.9334C23.123 3.75 29.0811 9.12463 30.0016 16.0666H25.975ZM3.8105 60.25C4.7385 45.9209 15.2449 38.245 22.0917 35.6657V40.3778C22.0917 40.9499 21.8689 41.4879 21.4641 41.8926L15.4391 47.9176C13.1423 50.2145 13.1423 53.9519 15.4391 56.2487L19.44 60.25H3.8105ZM24.7434 60.25L18.0906 53.5973C17.2543 52.7609 17.2534 51.4065 18.0906 50.5692L24.1156 44.5444C25.2288 43.4314 25.8417 41.9516 25.8417 40.3778V34.5489C27.8536 34.1014 29.9191 33.875 32 33.875C36.9144 33.875 41.6772 35.1336 45.9062 37.5337L35.5223 47.9178C33.2226 50.2174 33.2178 53.9449 35.5223 56.2489L39.5234 60.25H24.7434ZM44.8266 60.25L38.1739 53.5971C37.3382 52.7616 37.3371 51.4062 38.1739 50.5692L49.1001 39.6431C55.6121 44.6034 59.6477 52.1131 60.1879 60.2499H44.8266V60.25Z" fill="black"/>
</svg>
