<svg width="56" height="40" viewBox="0 0 56 40" fill="none" xmlns="http://www.w3.org/2000/svg">
<path d="M12.5753 18.552C11.5673 18.552 10.6793 18.376 9.91133 18.024C9.14335 17.672 8.55135 17.184 8.13535 16.56C7.71935 15.92 7.51135 15.184 7.51135 14.352C7.51135 13.648 7.65534 13.008 7.94335 12.432C8.24734 11.856 8.64734 11.4 9.14334 11.064C9.65534 10.728 10.2153 10.56 10.8233 10.56C11.3833 10.56 11.8553 10.704 12.2393 10.992C12.6233 11.264 12.8633 11.648 12.9593 12.144C12.1273 12.144 11.4633 12.368 10.9673 12.816C10.4713 13.248 10.2233 13.84 10.2233 14.592C10.2233 15.28 10.4313 15.832 10.8473 16.248C11.2633 16.664 11.8153 16.872 12.5033 16.872C13.3513 16.872 14.0473 16.592 14.5913 16.032C15.1513 15.456 15.4313 14.736 15.4313 13.872C15.4313 13.12 15.2233 12.408 14.8073 11.736C14.3913 11.064 13.7673 10.248 12.9353 9.288C12.0713 8.296 11.4153 7.448 10.9673 6.744C10.5353 6.024 10.3193 5.24 10.3193 4.392C10.3193 3.56 10.5513 2.816 11.0153 2.16C11.4793 1.488 12.1193 0.960001 12.9353 0.576001C13.7513 0.192001 14.6713 0 15.6953 0C16.9913 0 18.0233 0.304001 18.7913 0.912001C19.5753 1.52 19.9673 2.336 19.9673 3.36C19.9673 4.032 19.7993 4.576 19.4633 4.992C19.1273 5.408 18.6873 5.616 18.1433 5.616C17.5353 5.616 17.0473 5.368 16.6793 4.872C16.9833 4.648 17.2233 4.352 17.3993 3.984C17.5753 3.616 17.6633 3.232 17.6633 2.832C17.6633 2.32 17.5113 1.912 17.2073 1.608C16.9033 1.304 16.4873 1.152 15.9593 1.152C15.3193 1.152 14.7913 1.384 14.3753 1.848C13.9753 2.296 13.7753 2.872 13.7753 3.576C13.7753 4.216 13.9593 4.816 14.3273 5.376C14.6953 5.92 15.2713 6.624 16.0553 7.488C16.6953 8.176 17.2073 8.768 17.5913 9.264C17.9913 9.76 18.3273 10.336 18.5993 10.992C18.8873 11.632 19.0313 12.328 19.0313 13.08C19.0313 14.104 18.7433 15.032 18.1673 15.864C17.6073 16.696 16.8313 17.352 15.8393 17.832C14.8633 18.312 13.7753 18.552 12.5753 18.552ZM22.7588 18.264C21.9908 18.264 21.3668 18.024 20.8868 17.544C20.4228 17.064 20.1908 16.344 20.1908 15.384C20.1908 14.984 20.2548 14.464 20.3828 13.824L22.0148 6.12H25.4708L23.7428 14.28C23.6948 14.52 23.6708 14.744 23.6708 14.952C23.6708 15.608 23.9108 15.936 24.3908 15.936C24.8388 15.936 25.2228 15.752 25.5428 15.384C25.8628 15 26.1188 14.48 26.3108 13.824L27.9428 6.12H31.3988L29.6708 14.28C29.6068 14.52 29.5748 14.776 29.5748 15.048C29.5748 15.368 29.6468 15.6 29.7908 15.744C29.9508 15.872 30.2068 15.936 30.5588 15.936C31.0068 15.936 31.3908 15.744 31.7108 15.36C32.0468 14.976 32.3108 14.464 32.5028 13.824H33.5108C32.9188 15.552 32.1828 16.728 31.3028 17.352C30.4388 17.96 29.5668 18.264 28.6868 18.264C27.9988 18.264 27.4468 18.072 27.0308 17.688C26.6308 17.304 26.3908 16.736 26.3108 15.984C25.7668 16.864 25.1908 17.464 24.5828 17.784C23.9908 18.104 23.3828 18.264 22.7588 18.264ZM34.132 6.12H37.588L37.276 7.608C37.82 7.128 38.308 6.76 38.74 6.504C39.188 6.248 39.668 6.12 40.18 6.12C40.692 6.12 41.092 6.296 41.38 6.648C41.684 7 41.836 7.424 41.836 7.92C41.836 8.384 41.684 8.792 41.38 9.144C41.076 9.496 40.652 9.672 40.108 9.672C39.756 9.672 39.516 9.592 39.388 9.432C39.276 9.256 39.188 9.008 39.124 8.688C39.076 8.48 39.028 8.328 38.98 8.232C38.932 8.136 38.844 8.088 38.716 8.088C38.38 8.088 38.092 8.16 37.852 8.304C37.628 8.432 37.332 8.664 36.964 9L35.044 18.12H31.588L34.132 6.12ZM39.3634 24.12C38.6114 24.12 37.9554 23.872 37.3954 23.376C36.8194 22.896 36.5314 22.28 36.5314 21.528C36.5314 20.84 36.7074 20.272 37.0594 19.824C37.4114 19.376 37.8674 19.016 38.4274 18.744C38.9874 18.488 39.7314 18.216 40.6594 17.928L43.5634 4.224C43.8834 2.688 44.4434 1.624 45.2434 1.032C46.0594 0.440001 46.9554 0.144001 47.9314 0.144001C48.6834 0.144001 49.3394 0.392001 49.8994 0.888001C50.4754 1.368 50.7634 1.984 50.7634 2.736C50.7634 3.104 50.7394 3.432 50.6914 3.72H49.5634C49.5954 3.368 49.6114 3.152 49.6114 3.072C49.6114 2.816 49.5234 2.616 49.3474 2.472C49.1714 2.328 48.9554 2.256 48.6994 2.256C48.3634 2.256 48.0354 2.408 47.7154 2.712C47.3954 3 47.1634 3.504 47.0194 4.224L46.6114 6.12H48.3634L48.1954 7.08H46.4194L43.6594 20.04C43.3394 21.592 42.7874 22.656 42.0034 23.232C41.2194 23.824 40.3394 24.12 39.3634 24.12ZM38.8114 21.984C39.4514 21.984 39.9074 21.36 40.1794 20.112L40.4914 18.72C39.6434 19.008 38.9954 19.336 38.5474 19.704C38.0834 20.088 37.8514 20.584 37.8514 21.192C37.8514 21.384 37.9474 21.56 38.1394 21.72C38.3314 21.896 38.5554 21.984 38.8114 21.984ZM3.36 39.264C2.272 39.264 1.44 39 0.864005 38.472C0.288 37.928 0 37.168 0 36.192C0 35.712 0.056 35.256 0.168 34.824L2.73601 22.8L6.28801 22.32L5.13601 27.72C5.58401 27.448 5.952 27.272 6.24001 27.192C6.52801 27.096 6.81601 27.048 7.10401 27.048C8.99201 27.048 9.93603 28.416 9.93603 31.152C9.93603 32.256 9.72001 33.44 9.288 34.704C8.872 35.952 8.168 37.024 7.17601 37.92C6.20001 38.816 4.928 39.264 3.36 39.264ZM4.70401 36.936C5.20001 36.936 5.66401 36.632 6.09601 36.024C6.52801 35.4 6.872 34.632 7.12801 33.72C7.38401 32.792 7.51201 31.904 7.51201 31.056C7.51201 30.416 7.40001 29.872 7.17601 29.424C6.95201 28.976 6.64001 28.752 6.24001 28.752C6.00001 28.752 5.728 28.792 5.42401 28.872C5.136 28.936 4.93601 29.04 4.82401 29.184L3.504 35.28C3.456 35.472 3.432 35.656 3.432 35.832C3.432 36.568 3.85601 36.936 4.70401 36.936ZM14.336 39.216C13.152 39.216 12.216 38.912 11.528 38.304C10.84 37.696 10.496 36.736 10.496 35.424C10.496 34.336 10.72 33.128 11.168 31.8C11.616 30.472 12.336 29.328 13.328 28.368C14.32 27.392 15.568 26.904 17.072 26.904C19.12 26.904 20.144 28.184 20.144 30.744V30.768C20.192 30.784 20.28 30.792 20.408 30.792C20.936 30.792 21.544 30.656 22.232 30.384C22.92 30.096 23.544 29.752 24.104 29.352L24.32 30C23.856 30.496 23.248 30.92 22.496 31.272C21.76 31.608 20.952 31.848 20.072 31.992C19.944 33.448 19.616 34.72 19.088 35.808C18.56 36.896 17.88 37.736 17.048 38.328C16.216 38.92 15.312 39.216 14.336 39.216ZM15.296 37.056C15.68 37.056 16.064 36.84 16.448 36.408C16.832 35.96 17.168 35.36 17.456 34.608C17.744 33.84 17.952 32.992 18.08 32.064C17.648 31.968 17.432 31.632 17.432 31.056C17.432 30.4 17.68 29.968 18.176 29.76C18.144 29.232 18.064 28.872 17.936 28.68C17.808 28.472 17.584 28.368 17.264 28.368C16.736 28.368 16.224 28.752 15.728 29.52C15.232 30.288 14.832 31.208 14.528 32.28C14.224 33.352 14.072 34.296 14.072 35.112C14.072 35.88 14.16 36.4 14.336 36.672C14.512 36.928 14.832 37.056 15.296 37.056ZM24.2589 39.264C23.3469 39.264 22.5869 38.952 21.9789 38.328C21.3709 37.704 21.0669 36.728 21.0669 35.4C21.0669 34.216 21.2989 32.976 21.7629 31.68C22.2429 30.368 22.9469 29.264 23.8749 28.368C24.8189 27.456 25.9389 27 27.2349 27C27.8909 27 28.3789 27.112 28.6989 27.336C29.0189 27.56 29.1789 27.856 29.1789 28.224V28.392L29.4429 27.12H32.8989L31.1709 35.28C31.1069 35.52 31.0749 35.776 31.0749 36.048C31.0749 36.736 31.4029 37.08 32.0589 37.08C32.5069 37.08 32.8909 36.872 33.2109 36.456C33.5469 36.04 33.8109 35.496 34.0029 34.824H35.0109C34.4189 36.552 33.6829 37.728 32.8029 38.352C31.9389 38.96 31.0669 39.264 30.1869 39.264C29.5149 39.264 28.9709 39.08 28.5549 38.712C28.1549 38.328 27.9149 37.776 27.8349 37.056C27.3709 37.712 26.8509 38.248 26.2749 38.664C25.7149 39.064 25.0429 39.264 24.2589 39.264ZM25.8189 36.936C26.2189 36.936 26.6109 36.752 26.9949 36.384C27.3949 36 27.6669 35.48 27.8109 34.824L28.9629 29.4C28.9629 29.192 28.8829 28.992 28.7229 28.8C28.5629 28.592 28.3149 28.488 27.9789 28.488C27.3389 28.488 26.7629 28.864 26.2509 29.616C25.7389 30.352 25.3389 31.248 25.0509 32.304C24.7629 33.344 24.6189 34.264 24.6189 35.064C24.6189 35.864 24.7309 36.376 24.9549 36.6C25.1949 36.824 25.4829 36.936 25.8189 36.936ZM35.6437 27.12H39.0997L38.7877 28.608C39.3317 28.128 39.8197 27.76 40.2517 27.504C40.6997 27.248 41.1797 27.12 41.6917 27.12C42.2037 27.12 42.6037 27.296 42.8917 27.648C43.1957 28 43.3477 28.424 43.3477 28.92C43.3477 29.384 43.1957 29.792 42.8917 30.144C42.5877 30.496 42.1637 30.672 41.6197 30.672C41.2677 30.672 41.0277 30.592 40.8997 30.432C40.7877 30.256 40.6997 30.008 40.6357 29.688C40.5877 29.48 40.5397 29.328 40.4917 29.232C40.4437 29.136 40.3557 29.088 40.2277 29.088C39.8917 29.088 39.6037 29.16 39.3637 29.304C39.1397 29.432 38.8437 29.664 38.4757 30L36.5557 39.12H33.0997L35.6437 27.12ZM45.9152 39.264C45.0032 39.264 44.2432 38.952 43.6352 38.328C43.0272 37.704 42.7232 36.728 42.7232 35.4C42.7232 34.216 42.9552 32.976 43.4192 31.68C43.8992 30.368 44.6032 29.264 45.5312 28.368C46.4752 27.456 47.5952 27 48.8912 27C49.5472 27 50.0352 27.112 50.3552 27.336C50.6752 27.56 50.8352 27.856 50.8352 28.224V28.32L52.0112 22.8L55.5632 22.32L52.8032 35.28C52.7392 35.52 52.7072 35.752 52.7072 35.976C52.7072 36.616 53.0352 36.936 53.6912 36.936C53.9792 36.936 54.2352 36.888 54.4592 36.792C54.3952 37.592 54.1072 38.208 53.5952 38.64C53.0992 39.056 52.5072 39.264 51.8192 39.264C51.1792 39.264 50.6352 39.104 50.1872 38.784C49.7552 38.448 49.4672 37.944 49.3232 37.272C48.3632 38.6 47.2272 39.264 45.9152 39.264ZM47.4752 36.936C47.8272 36.936 48.1792 36.784 48.5312 36.48C48.8992 36.176 49.1712 35.752 49.3472 35.208L49.4432 34.824L50.6192 29.328C50.4752 28.768 50.1472 28.488 49.6352 28.488C48.9952 28.488 48.4192 28.864 47.9072 29.616C47.3952 30.352 46.9952 31.248 46.7072 32.304C46.4192 33.344 46.2752 34.264 46.2752 35.064C46.2752 35.864 46.3872 36.376 46.6112 36.6C46.8512 36.824 47.1392 36.936 47.4752 36.936Z" fill="white"/>
</svg>
