<svg width="35" height="35" viewBox="0 0 35 35" fill="none" xmlns="http://www.w3.org/2000/svg">
<path d="M33.8298 12.4181H26.5562C26.5569 12.4117 26.5579 12.4054 26.5586 12.3991C27.405 11.6708 28.0815 10.8061 28.5729 9.82357C28.7304 9.50849 28.7136 9.13433 28.5284 8.8347C28.3432 8.53501 28.016 8.3526 27.6638 8.3526H26.0949C25.7545 7.38962 25.2576 6.50036 24.6109 5.69742C24.6938 4.58516 24.5607 3.4969 24.2137 2.45599C24.1023 2.12181 23.8258 1.86914 23.483 1.78823C23.1401 1.70726 22.7799 1.80971 22.5308 2.05872L21.4191 3.17037C20.5006 2.73129 19.5227 2.45416 18.4992 2.34311C17.7321 1.43955 16.848 0.724357 15.9218 0.261161C15.6067 0.103623 15.2326 0.120427 14.9328 0.30561C14.6333 0.490794 14.4509 0.817932 14.4509 1.17021V2.80684C13.4879 3.14719 12.5986 3.6442 11.7957 4.29082C10.6836 4.20795 9.59509 4.3411 8.55439 4.68809C8.22021 4.79948 7.96754 5.07601 7.88663 5.4188C7.80573 5.76159 7.90804 6.12192 8.15712 6.37094L9.26857 7.48245C8.82922 8.40159 8.55195 9.38016 8.4411 10.4045C7.76013 10.9905 7.18933 11.665 6.73623 12.4182H1.17022C0.608905 12.4182 0.153839 12.8732 0.153839 13.4345V17.5001C0.153839 18.0614 0.608905 18.5164 1.17022 18.5164H2.25435V33.8298C2.25435 34.3911 2.70942 34.8462 3.27073 34.8462H7.33623C7.89754 34.8462 8.35261 34.3911 8.35261 33.8298V30.3847L17.5 26.7258L26.6474 30.3847V33.8298C26.6474 34.3911 27.1024 34.8461 27.6638 34.8461H31.7293C32.2906 34.8461 32.7456 34.3911 32.7456 33.8298V18.5164H33.8298C34.3911 18.5164 34.8461 18.0613 34.8461 17.5V13.4345C34.8461 12.8732 34.3911 12.4181 33.8298 12.4181ZM10.0399 11.7226C10.2717 11.5431 10.4147 11.2723 10.4322 10.9796C10.5 9.84511 10.8237 8.77921 11.3944 7.81155C11.6298 7.41232 11.5652 6.90433 11.2376 6.57658L10.9639 6.30291C11.3037 6.29247 11.6479 6.30921 11.9952 6.35318C12.286 6.39004 12.5787 6.29952 12.798 6.10471C13.6472 5.35029 14.631 4.82455 15.722 4.542C16.1704 4.426 16.4836 4.02141 16.4836 3.55822V3.15607C16.7255 3.39404 16.9585 3.65687 17.179 3.94173C17.3585 4.17353 17.6293 4.3165 17.922 4.33398C19.0564 4.40174 20.1223 4.72549 21.0901 5.29615C21.4894 5.53155 21.9973 5.46704 22.325 5.13936L22.5988 4.86562C22.6092 5.20542 22.5925 5.54971 22.5485 5.89697C22.5117 6.18785 22.6022 6.4805 22.797 6.69977C23.5514 7.54905 24.0772 8.53284 24.3597 9.62382C24.4758 10.0722 24.8804 10.3854 25.3436 10.3854H25.7272C25.4937 10.6338 25.2377 10.8659 24.9602 11.0808C24.7284 11.2603 24.5854 11.5311 24.5679 11.8238C24.556 12.023 24.5354 12.2214 24.5072 12.4182H20.3743C20.4871 12.1 20.5491 11.7581 20.5491 11.4018C20.5491 9.72051 19.1813 8.35267 17.5 8.35267C15.8187 8.35267 14.4509 9.72051 14.4509 11.4018C14.4509 11.7581 14.5129 12.1 14.6257 12.4182H9.27331C9.50687 12.1698 9.76239 11.9375 10.0399 11.7226ZM18.5164 11.4017C18.5164 11.9622 18.0604 12.4181 17.5 12.4181C16.9396 12.4181 16.4836 11.9622 16.4836 11.4017C16.4836 10.8413 16.9396 10.3854 17.5 10.3854C18.0604 10.3854 18.5164 10.8413 18.5164 11.4017ZM6.31985 32.8134H4.2871V18.5164H6.31985C6.31985 18.5094 6.31992 28.5516 6.31985 32.8134ZM8.35261 28.1953V23.0667L14.7633 25.631L8.35261 28.1953ZM26.6474 28.1953L20.2367 25.631L26.6474 23.0667V28.1953ZM26.6474 20.8774L17.5 24.5364L8.35261 20.8774V18.5164H26.6474V20.8774ZM30.7129 32.8134H28.6801C28.6801 31.0105 28.6801 20.6905 28.6801 18.5164H30.7129V32.8134ZM32.8134 16.4836H2.18659V14.4509H32.8134V16.4836Z" fill="white"/>
</svg>
